<?xml version="1.0" encoding="UTF-8"?>
<svg version="1.1" xmlns="http://www.w3.org/2000/svg" width="500" height="500">
<path d="M0 0 C165 0 330 0 500 0 C500 165 500 330 500 500 C335 500 170 500 0 500 C0 335 0 170 0 0 Z " fill="#171717" transform="translate(0,0)"/>
<path d="M0 0 C0.53109375 0.42410156 1.0621875 0.84820312 1.609375 1.28515625 C1.939375 0.29515625 2.269375 -0.69484375 2.609375 -1.71484375 C10.529375 -1.71484375 18.449375 -1.71484375 26.609375 -1.71484375 C23.609375 7.28515625 23.609375 7.28515625 22.1875 11.09375 C19.88638155 17.38121777 18.04488519 22.5713041 19.1953125 29.3046875 C21.25731779 44.14723503 20.30774009 58.68361132 11.39453125 71.17578125 C7.8304507 75.38716746 3.58830511 79.7956912 -1.390625 82.28515625 C-1.390625 82.94515625 -1.390625 83.60515625 -1.390625 84.28515625 C0.05362489 85.17763635 1.542814 85.99764182 3.046875 86.78515625 C14.25576499 93.34877783 21.075955 103.77635943 24.7421875 116.08984375 C28.04566317 130.24568114 25.96841239 145.51661966 19 158.21875 C8.07899218 174.67540628 -7.5302435 182.23996514 -26.390625 186.28515625 C-40.29976583 189.09019856 -54.69453489 187.36856921 -68.390625 184.28515625 C-69.78861328 183.97771484 -69.78861328 183.97771484 -71.21484375 183.6640625 C-86.3933894 179.728884 -100.11661628 169.59639766 -108.390625 156.28515625 C-114.6954918 144.14137123 -116.390625 133.88461276 -116.390625 120.28515625 C-107.810625 120.28515625 -99.230625 120.28515625 -90.390625 120.28515625 C-89.9575 122.73953125 -89.524375 125.19390625 -89.078125 127.72265625 C-87.01625611 138.75482065 -84.82727594 148.73871158 -75.28515625 155.85546875 C-71.38969667 158.1582714 -67.43571793 159.65795083 -63.09765625 160.91796875 C-62.21182861 161.17723145 -61.32600098 161.43649414 -60.41333008 161.70361328 C-59.7458374 161.89552246 -59.07834473 162.08743164 -58.390625 162.28515625 C-58.9153478 160.71098785 -59.44007137 159.13681972 -59.96479797 157.56265259 C-60.43973485 156.13783161 -60.91465913 154.71300643 -61.38957214 153.28817749 C-62.72679157 149.27633155 -64.06424229 145.26456295 -65.40209961 141.25292969 C-67.80818266 134.03747043 -70.21388357 126.82189942 -72.60943604 119.60293579 C-73.51123149 116.88546514 -74.41406849 114.16834102 -75.31695557 111.45123291 C-75.93878057 109.57836021 -76.55900883 107.7049576 -77.17919922 105.83154297 C-77.55963379 104.6870166 -77.94006836 103.54249023 -78.33203125 102.36328125 C-78.82231812 100.88456543 -78.82231812 100.88456543 -79.32250977 99.37597656 C-80.13158409 97.03474662 -80.97317831 94.72077074 -81.85058594 92.40527344 C-83.36483473 88.39689959 -84.7442476 84.35279388 -86.08984375 80.28515625 C-86.44971123 79.2034314 -86.44971123 79.2034314 -86.81684875 78.09985352 C-87.57203566 75.82875933 -88.32511764 73.5569739 -89.078125 71.28515625 C-89.5942611 69.73172433 -90.11053592 68.17833849 -90.62695312 66.625 C-91.88337027 62.84566495 -93.13692952 59.06539933 -94.390625 55.28515625 C-99.340625 54.62515625 -104.290625 53.96515625 -109.390625 53.28515625 C-109.64643554 46.37827155 -109.32978383 40.35512098 -107.828125 33.59765625 C-105.42581936 22.17515492 -108.12468803 14.58262111 -112.11328125 3.8828125 C-113.390625 0.28515625 -113.390625 0.28515625 -113.390625 -1.71484375 C-104.390625 -1.71484375 -95.390625 -1.71484375 -86.390625 -1.71484375 C-84.90005766 -2.57810669 -83.44590261 -3.50498967 -82.015625 -4.46484375 C-58.41005539 -19.10583487 -22.22414179 -15.9418272 0 0 Z " fill="#FCFCFC" transform="translate(293.390625,155.71484375)"/>
<path d="M0 0 C13.57190876 8.8883344 23.90489452 18.05223296 28.3359375 34.29296875 C31.07659453 49.59228356 29.42046813 65.34045857 20.6875 78.5 C8.07388163 94.70197532 -8.86371896 102.2642262 -29 105 C-41.29685227 105.78087286 -53.00699121 104.69999674 -65 102 C-65.93199219 101.79503906 -66.86398438 101.59007812 -67.82421875 101.37890625 C-83.0027644 97.44372775 -96.72599128 87.31124141 -105 74 C-111.3048668 61.85621498 -113 51.59945651 -113 38 C-104.42 38 -95.84 38 -87 38 C-86.566875 40.454375 -86.13375 42.90875 -85.6875 45.4375 C-83.61301167 56.53718551 -81.39108857 66.36412356 -71.89453125 73.60546875 C-67.12350333 76.4849741 -62.57480254 77.73844474 -57.06640625 78.4453125 C-55 79 -55 79 -53 82 C-53 83.32 -53 84.64 -53 86 C-45.41 86 -37.82 86 -30 86 C-29.01 82.7 -28.02 79.4 -27 76 C-26.43313393 74.26044927 -25.85551272 72.52428036 -25.25756836 70.79516602 C-24.94940186 69.90121124 -24.64123535 69.00725647 -24.32373047 68.08621216 C-23.99904785 67.15155121 -23.67436523 66.21689026 -23.33984375 65.25390625 C-22.99332764 64.25205292 -22.64681152 63.25019958 -22.28979492 62.21798706 C-21.17497165 58.99857995 -20.05655493 55.78043844 -18.9375 52.5625 C-18.55860626 51.47083527 -18.17971252 50.37917053 -17.78933716 49.25442505 C-12.06137429 32.75890528 -6.21842228 16.31779588 0 0 Z " fill="#8B51FC" transform="translate(290,238)"/>
<path d="M0 0 C4.821963 3.70186945 9.29664786 8.01236636 11.19775391 13.91723633 C11.59559696 17.64597052 10.58730764 20.58895359 9.39453125 24.06640625 C9.15952911 24.78233444 8.92452698 25.49826263 8.68240356 26.23588562 C7.90370905 28.59865975 7.10822018 30.9554107 6.3125 33.3125 C5.76076163 34.9752417 5.21007797 36.63833371 4.66040039 38.30175781 C3.23271711 42.61292295 1.7911191 46.91930023 0.34606934 51.22467041 C-0.97285458 55.16136621 -2.27919809 59.1022154 -3.5859375 63.04296875 C-5.79963409 69.71242481 -8.02446805 76.37809074 -10.25541687 83.04179382 C-12.84663788 90.78240133 -15.42720691 98.52654953 -18.0072937 106.27087402 C-19.17636261 109.77966597 -20.34600526 113.28826663 -21.515625 116.796875 C-22.09231934 118.52695801 -22.09231934 118.52695801 -22.68066406 120.29199219 C-22.95104492 121.10313477 -23.22142578 121.91427734 -23.5 122.75 C-26.56117783 121.21941108 -26.7017468 118.93391798 -27.8125 115.75 C-28.03123779 115.12335449 -28.24997559 114.49670898 -28.4753418 113.85107422 C-30.30176452 108.52962889 -31.87596858 103.14575936 -33.42431641 97.73828125 C-35.17813384 91.68277254 -37.16184366 85.71935913 -39.1875 79.75 C-43.00665187 68.46203884 -46.48915058 57.08491919 -49.91088867 45.671875 C-50.10894608 45.0113916 -50.30700348 44.3509082 -50.51106262 43.67041016 C-50.90534477 42.35510394 -51.29921902 41.03967537 -51.69267273 39.72412109 C-52.73091768 36.26418168 -53.78990854 32.81197709 -54.87744141 29.3671875 C-55.10482498 28.64668213 -55.33220856 27.92617676 -55.56648254 27.18383789 C-56.00160555 25.80985054 -56.43903057 24.43658922 -56.87919617 23.06420898 C-59.87382423 13.61672958 -59.87382423 13.61672958 -58.53125 10.50390625 C-52.40228837 1.73261167 -45.71915751 -4.24532744 -35.09765625 -6.8359375 C-22.86273158 -8.78616609 -10.44271181 -6.8417767 0 0 Z " fill="#181718" transform="translate(273.5,171.25)"/>
<path d="M0 0 C1.32 1.32 2.64 2.64 4 4 C1.03 12.91 -1.94 21.82 -5 31 C-5.66 31 -6.32 31 -7 31 C-7.8861336 29.67978068 -8.70814872 28.31633406 -9.5 26.9375 C-15.29367622 18.07986039 -23.32982232 14.19548721 -33.41015625 11.65625 C-45.15875485 9.50851924 -56.15962046 10.84006944 -66.18359375 17.54296875 C-69.24410556 19.99795994 -71.63319834 22.88850374 -74 26 C-74.928125 27.2065625 -74.928125 27.2065625 -75.875 28.4375 C-76.24625 28.953125 -76.6175 29.46875 -77 30 C-79.44195936 24.53325715 -81.45940159 19.0044753 -83.3125 13.3125 C-83.60189453 12.47138672 -83.89128906 11.63027344 -84.18945312 10.76367188 C-84.45306641 9.95091797 -84.71667969 9.13816406 -84.98828125 8.30078125 C-85.23102783 7.57028564 -85.47377441 6.83979004 -85.72387695 6.0871582 C-86.07769102 3.41274929 -85.44806401 2.2375098 -84 0 C-61.61466623 -18.16254262 -23.17756101 -14.28238895 0 0 Z " fill="#8B51FC" transform="translate(291,154)"/>
<path d="M0 0 C1 2 1 2 0.18652344 5.00805664 C-0.24817285 6.3113455 -0.6912502 7.61185544 -1.140625 8.91015625 C-1.37885986 9.6177861 -1.61709473 10.32541595 -1.86254883 11.05448914 C-2.65149597 13.39287991 -3.45077418 15.72760448 -4.25 18.0625 C-4.79601775 19.67519511 -5.34125739 21.28815387 -5.88574219 22.90136719 C-7.01575868 26.2473239 -8.14929352 29.59205882 -9.28515625 32.93603516 C-11.72645947 40.13286565 -14.12296471 47.34458208 -16.52038574 54.55612183 C-17.68356078 58.05367456 -18.84966741 61.55024911 -20.015625 65.046875 C-20.40008789 66.20026367 -20.78455078 67.35365234 -21.18066406 68.54199219 C-21.45104492 69.35313477 -21.72142578 70.16427734 -22 71 C-25.06117783 69.46941108 -25.2017468 67.18391798 -26.3125 64 C-26.53123779 63.37335449 -26.74997559 62.74670898 -26.9753418 62.10107422 C-28.79472526 56.80013839 -30.36731805 51.43800888 -31.90454102 46.04980469 C-34.13671906 38.32403167 -36.72481489 30.7195673 -39.3215332 23.10986328 C-39.6537085 22.13001465 -39.98588379 21.15016602 -40.328125 20.140625 C-40.6262207 19.26954102 -40.92431641 18.39845703 -41.23144531 17.50097656 C-42.51201206 13.3338464 -43.40989387 10.2296816 -42 6 C-41.43192627 5.98018066 -40.86385254 5.96036133 -40.27856445 5.93994141 C-19.68039637 5.47536925 -19.68039637 5.47536925 0 0 Z " fill="#8C52FD" transform="translate(272,223)"/>
<path d="M0 0 C6.06174371 3.70439893 7.65641252 9.47658882 9.5859375 15.97265625 C11.5653984 25.66454499 9.43431233 34.30641398 5 43 C-0.20971714 50.33417147 -7.53293779 54.37229104 -16 57 C-16.99 57 -17.98 57 -19 57 C-18.39722263 50.5865604 -16.397536 44.92488315 -14.21875 38.88671875 C-13.84520386 37.83595657 -13.47165771 36.7851944 -13.08679199 35.70259094 C-11.89734396 32.36199663 -10.69864774 29.02480285 -9.5 25.6875 C-8.69343456 23.42403324 -7.88743874 21.16036342 -7.08203125 18.89648438 C-5.61069959 14.77055154 -4.13913497 10.64471458 -2.65820312 6.5222168 C-2.36143677 5.69505661 -2.06467041 4.86789642 -1.75891113 4.01567078 C-1 2 -1 2 0 0 Z " fill="#1B1A1D" transform="translate(282,261)"/>
<path d="M0 0 C4.10415189 -0.02898097 8.20827753 -0.0467922 12.3125 -0.0625 C13.47974609 -0.07087891 14.64699219 -0.07925781 15.84960938 -0.08789062 C17.52700195 -0.09272461 17.52700195 -0.09272461 19.23828125 -0.09765625 C20.26993408 -0.10289307 21.30158691 -0.10812988 22.36450195 -0.11352539 C25 0 25 0 28 1 C26.30808566 9.9589922 23.29557311 18.44717762 20.375 27.0625 C19.85374655 28.61118679 19.33290964 30.16001384 18.8125 31.70898438 C17.54646623 35.47429156 16.27480038 39.2376523 15 43 C11.93882217 41.46941108 11.7982532 39.18391798 10.6875 36 C10.36483154 35.07634644 10.36483154 35.07634644 10.03564453 34.1340332 C7.85431962 27.78094419 5.9927972 21.33670066 4.13671875 14.8828125 C3.2306762 11.74761763 2.24497086 8.65051349 1.1875 5.5625 C0 2 0 2 0 0 Z " fill="#1B1A1D" transform="translate(235,251)"/>
<path d="M0 0 C5.43698868 8.15548302 4.05084388 22.36747682 2.31640625 31.6640625 C-0.9977227 42.30777954 -7.08911345 50.34653805 -16 57 C-17.485 57.495 -17.485 57.495 -19 58 C-18.39851787 51.59532917 -16.40051 45.94945538 -14.21875 39.921875 C-13.84520386 38.8734845 -13.47165771 37.82509399 -13.08679199 36.74493408 C-11.89737998 33.41104017 -10.69888313 30.0804983 -9.5 26.75 C-8.69339772 24.49501073 -7.88740156 22.23980456 -7.08203125 19.984375 C-5.31333041 15.03284389 -3.53875361 10.08346217 -1.75891113 5.13592529 C-1.15305638 3.43077111 -0.57224215 1.71672645 0 0 Z " fill="#8D56FC" transform="translate(310,180)"/>
<path d="M0 0 C1.78145943 3.31395714 2.97928172 6.69409645 4.1640625 10.26171875 C4.56367188 11.46248047 4.96328125 12.66324219 5.375 13.90039062 C5.7875 15.15013672 6.2 16.39988281 6.625 17.6875 C7.04923727 18.96166911 7.47371393 20.23575853 7.8984375 21.50976562 C11 30.85976816 11 30.85976816 11 32 C5.84828377 32.09038099 1.08086796 31.84681133 -4 31 C-4.54359786 20.18844258 -2.68722814 10.43583745 0 0 Z " fill="#8D56FA" transform="translate(188,178)"/>
</svg>
